<svg xmlns="http://www.w3.org/2000/svg" viewBox="0 0 33.68 35"><defs><style>.cls-1{fill:#1d1d20;}.cls-2{fill:#dac0ec;}</style></defs><g id="Layer_2" data-name="Layer 2"><g id="icon"><polygon class="cls-1" points="33.68 35 0 35 4.09 27.23 29.58 27.23 33.68 35"/><path class="cls-1" d="M16.24,0h1.18a1.37,1.37,0,0,1,1.3.93L29,30.81a51.19,51.19,0,0,1-24.36,0L14.94.93A1.37,1.37,0,0,1,16.24,0Z"/><path class="cls-2" d="M12.74,15.14v6.24a.65.65,0,0,0,1.3,0V15.14a.65.65,0,1,0-1.3,0Z"/><path class="cls-2" d="M11.64,19.45l.11-.08.05-.05,0,0,.22-.17.42-.3c.29-.21.59-.4.89-.59a18.79,18.79,0,0,1,1.86-1,.52.52,0,0,0,.19-.72.55.55,0,0,0-.72-.19,21.15,21.15,0,0,0-3.74,2.38.51.51,0,0,0,0,.74.51.51,0,0,0,.37.15.58.58,0,0,0,.37-.15Z"/><path class="cls-2" d="M18,12.55A51.27,51.27,0,0,0,19.1,20c.15.68.32,1.35.5,2a.79.79,0,0,0,1.52-.41A50.83,50.83,0,0,1,20,16.4c-.08-.5-.15-1-.22-1.49l0,.21c-.12-.85-.21-1.71-.28-2.57A.9.9,0,0,0,19.3,12a.83.83,0,0,0-.56-.23.81.81,0,0,0-.55.23.75.75,0,0,0-.23.56Z"/><path class="cls-2" d="M17.27,18.57a23.58,23.58,0,0,0,4.06-1l1.12-.41a.62.62,0,0,0,.31-.24.58.58,0,0,0,0-.41.53.53,0,0,0-.64-.36,23.41,23.41,0,0,1-4,1.2l-1.17.2a.53.53,0,0,0-.12,1,.61.61,0,0,0,.4.05Z"/><path class="cls-2" d="M21.07,24.92a4.62,4.62,0,0,1-.78.75l.21-.16a6.46,6.46,0,0,1-1.3.75l.25-.1a7.6,7.6,0,0,1-1.87.5l.27,0a9,9,0,0,1-2.32,0l.28,0a6.81,6.81,0,0,1-1.49-.39l.25.1a4.29,4.29,0,0,1-.91-.52l.21.16a4.32,4.32,0,0,1-.61-.6l.17.21a2.94,2.94,0,0,1-.38-.63,1.07,1.07,0,0,0-.63-.49,1.11,1.11,0,0,0-.8.11,1.07,1.07,0,0,0-.49.63l0,.27a1.08,1.08,0,0,0,.14.53A3.78,3.78,0,0,0,12,27.13a4.72,4.72,0,0,0,1,.81,6.89,6.89,0,0,0,2.84.81A8.93,8.93,0,0,0,20.5,28a5.89,5.89,0,0,0,1-.6,6.05,6.05,0,0,0,1.06-1,1.12,1.12,0,0,0,.3-.74,1.07,1.07,0,0,0-.3-.74,1.1,1.1,0,0,0-.75-.31,1.08,1.08,0,0,0-.74.31Z"/></g></g></svg>